G04 EAGLE Gerber RS-274X export*
G75*
%MOMM*%
%FSLAX34Y34*%
%LPD*%
%INTop Copper*%
%IPPOS*%
%AMOC8*
5,1,8,0,0,1.08239X$1,22.5*%
G01*
%ADD10R,1.397000X0.350000*%
%ADD11C,1.930400*%
%ADD12R,1.879600X1.879600*%
%ADD13C,1.879600*%
%ADD14C,1.308000*%
%ADD15C,0.152400*%
%ADD16C,0.756400*%


D10*
X600184Y492516D03*
X600184Y500516D03*
X600184Y508516D03*
X600184Y516516D03*
X600184Y524516D03*
X600184Y532516D03*
X600184Y540516D03*
X629304Y492516D03*
X629304Y500516D03*
X629304Y508516D03*
X629304Y516516D03*
X629304Y524516D03*
X629304Y532516D03*
X629304Y540516D03*
D11*
X115571Y345964D03*
X140971Y345964D03*
X166371Y345964D03*
X191771Y345964D03*
X217171Y345964D03*
X242571Y345964D03*
X267971Y345964D03*
X293371Y345964D03*
X318771Y345964D03*
X344171Y345964D03*
X369571Y345964D03*
X394971Y345964D03*
X420371Y345964D03*
X445771Y345964D03*
X471171Y345964D03*
X115571Y574564D03*
X140971Y574564D03*
X166371Y574564D03*
X191771Y574564D03*
X217171Y574564D03*
X242571Y574564D03*
X267971Y574564D03*
X293371Y574564D03*
X318771Y574564D03*
X344171Y574564D03*
X369571Y574564D03*
X394971Y574564D03*
X420371Y574564D03*
X445771Y574564D03*
X471171Y574564D03*
D12*
X717277Y510393D03*
D13*
X742677Y510393D03*
X768077Y510393D03*
D14*
X130800Y924960D02*
X130800Y938040D01*
X156200Y938040D02*
X156200Y924960D01*
X181600Y924960D02*
X181600Y938040D01*
X207000Y938040D02*
X207000Y924960D01*
X232400Y924960D02*
X232400Y938040D01*
X257800Y938040D02*
X257800Y924960D01*
X283200Y924960D02*
X283200Y938040D01*
X308600Y938040D02*
X308600Y924960D01*
X334000Y924960D02*
X334000Y938040D01*
X359400Y938040D02*
X359400Y924960D01*
X384800Y924960D02*
X384800Y938040D01*
X410200Y938040D02*
X410200Y924960D01*
X435600Y924960D02*
X435600Y938040D01*
X461000Y938040D02*
X461000Y924960D01*
X486400Y924960D02*
X486400Y938040D01*
X511800Y938040D02*
X511800Y924960D01*
D15*
X598932Y525780D02*
X190500Y525780D01*
X141732Y574548D01*
X598932Y525780D02*
X600184Y524516D01*
X141732Y574548D02*
X140971Y574564D01*
X225552Y516636D02*
X598932Y516636D01*
X600184Y516516D01*
X205740Y614172D02*
X205740Y931164D01*
X205740Y614172D02*
X167640Y576072D01*
X205740Y931164D02*
X207000Y931500D01*
X167640Y576072D02*
X166371Y574564D01*
D16*
X225552Y516636D03*
D15*
X188976Y501396D02*
X598932Y501396D01*
X188976Y501396D02*
X115824Y574548D01*
X598932Y501396D02*
X600184Y500516D01*
X115824Y574548D02*
X115571Y574564D01*
X620268Y499872D02*
X627888Y499872D01*
X620268Y499872D02*
X507492Y387096D01*
X486156Y387096D01*
X446532Y347472D01*
X627888Y499872D02*
X629304Y500516D01*
X446532Y347472D02*
X445771Y345964D01*
X460248Y665988D02*
X460248Y931164D01*
X460248Y665988D02*
X370332Y576072D01*
X460248Y931164D02*
X461000Y931500D01*
X370332Y576072D02*
X369571Y574564D01*
X434340Y665988D02*
X434340Y931164D01*
X434340Y665988D02*
X344424Y576072D01*
X434340Y931164D02*
X435600Y931500D01*
X344424Y576072D02*
X344171Y574564D01*
X409956Y665988D02*
X409956Y931164D01*
X409956Y665988D02*
X320040Y576072D01*
X409956Y931164D02*
X410200Y931500D01*
X320040Y576072D02*
X318771Y574564D01*
X384048Y665988D02*
X384048Y931164D01*
X384048Y665988D02*
X294132Y576072D01*
X384048Y931164D02*
X384800Y931500D01*
X294132Y576072D02*
X293371Y574564D01*
X257556Y641604D02*
X257556Y931164D01*
X257556Y641604D02*
X192024Y576072D01*
X257556Y931164D02*
X257800Y931500D01*
X192024Y576072D02*
X191771Y574564D01*
X284988Y533400D02*
X598932Y533400D01*
X284988Y533400D02*
X243840Y574548D01*
X598932Y533400D02*
X600184Y532516D01*
X243840Y574548D02*
X242571Y574564D01*
X155448Y580644D02*
X155448Y931164D01*
X155448Y580644D02*
X153924Y579120D01*
X153924Y569976D01*
X161544Y562356D01*
X230124Y562356D01*
X242316Y574548D01*
X155448Y931164D02*
X156200Y931500D01*
X242316Y574548D02*
X242571Y574564D01*
X239268Y932688D02*
X233172Y932688D01*
X239268Y932688D02*
X254508Y947928D01*
X495300Y947928D01*
X510540Y932688D01*
X233172Y932688D02*
X232400Y931500D01*
X510540Y932688D02*
X511800Y931500D01*
X766572Y676656D02*
X766572Y510540D01*
X766572Y676656D02*
X512064Y931164D01*
X766572Y510540D02*
X768077Y510393D01*
X512064Y931164D02*
X511800Y931500D01*
X486156Y931164D02*
X486156Y589788D01*
X472440Y576072D01*
X486156Y931164D02*
X486400Y931500D01*
X472440Y576072D02*
X471171Y574564D01*
X672084Y510540D02*
X716280Y510540D01*
X672084Y510540D02*
X592836Y589788D01*
X486156Y589788D01*
X716280Y510540D02*
X717277Y510393D01*
M02*
