G04 EAGLE Gerber RS-274X export*
G75*
%MOMM*%
%FSLAX34Y34*%
%LPD*%
%IN*%
%IPPOS*%
%AMOC8*
5,1,8,0,0,1.08239X$1,22.5*%
G01*
%ADD10C,0.254000*%


D10*
X38863Y966718D02*
X39117Y323361D01*
X864417Y323361D01*
X864163Y966718D01*
X38863Y966718D01*
X77995Y374664D02*
X79040Y374595D01*
X80079Y374459D01*
X81106Y374254D01*
X82118Y373983D01*
X83110Y373646D01*
X84078Y373245D01*
X85018Y372782D01*
X85925Y372258D01*
X86796Y371676D01*
X87627Y371039D01*
X88415Y370348D01*
X89155Y369607D01*
X89846Y368819D01*
X90484Y367988D01*
X91066Y367117D01*
X91590Y366210D01*
X92053Y365271D01*
X92454Y364303D01*
X92791Y363311D01*
X93062Y362299D01*
X93266Y361271D01*
X93403Y360233D01*
X93471Y359188D01*
X93471Y358140D01*
X93403Y357095D01*
X93266Y356056D01*
X93062Y355029D01*
X92791Y354017D01*
X92454Y353025D01*
X92053Y352057D01*
X91590Y351117D01*
X91066Y350210D01*
X90484Y349339D01*
X89846Y348508D01*
X89155Y347720D01*
X88415Y346980D01*
X87627Y346289D01*
X86796Y345651D01*
X85925Y345069D01*
X85018Y344545D01*
X84078Y344082D01*
X83110Y343681D01*
X82118Y343345D01*
X81106Y343073D01*
X80079Y342869D01*
X79040Y342732D01*
X77995Y342664D01*
X76947Y342664D01*
X75902Y342732D01*
X74864Y342869D01*
X73836Y343073D01*
X72824Y343345D01*
X71832Y343681D01*
X70864Y344082D01*
X69925Y344545D01*
X69018Y345069D01*
X68147Y345651D01*
X67316Y346289D01*
X66528Y346980D01*
X65787Y347720D01*
X65096Y348508D01*
X64459Y349339D01*
X63877Y350210D01*
X63353Y351117D01*
X62890Y352057D01*
X62489Y353025D01*
X62152Y354017D01*
X61881Y355029D01*
X61677Y356056D01*
X61540Y357095D01*
X61471Y358140D01*
X61471Y359188D01*
X61540Y360233D01*
X61677Y361271D01*
X61881Y362299D01*
X62152Y363311D01*
X62489Y364303D01*
X62890Y365271D01*
X63353Y366210D01*
X63877Y367117D01*
X64459Y367988D01*
X65096Y368819D01*
X65787Y369607D01*
X66528Y370348D01*
X67316Y371039D01*
X68147Y371676D01*
X69018Y372258D01*
X69925Y372782D01*
X70864Y373245D01*
X71832Y373646D01*
X72824Y373983D01*
X73836Y374254D01*
X74864Y374459D01*
X75902Y374595D01*
X76947Y374664D01*
X77995Y374664D01*
X77995Y577864D02*
X79040Y577795D01*
X80079Y577659D01*
X81106Y577454D01*
X82118Y577183D01*
X83110Y576846D01*
X84078Y576445D01*
X85018Y575982D01*
X85925Y575458D01*
X86796Y574876D01*
X87627Y574239D01*
X88415Y573548D01*
X89155Y572807D01*
X89846Y572019D01*
X90484Y571188D01*
X91066Y570317D01*
X91590Y569410D01*
X92053Y568471D01*
X92454Y567503D01*
X92791Y566511D01*
X93062Y565499D01*
X93266Y564471D01*
X93403Y563433D01*
X93471Y562388D01*
X93471Y561340D01*
X93403Y560295D01*
X93266Y559256D01*
X93062Y558229D01*
X92791Y557217D01*
X92454Y556225D01*
X92053Y555257D01*
X91590Y554317D01*
X91066Y553410D01*
X90484Y552539D01*
X89846Y551708D01*
X89155Y550920D01*
X88415Y550180D01*
X87627Y549489D01*
X86796Y548851D01*
X85925Y548269D01*
X85018Y547745D01*
X84078Y547282D01*
X83110Y546881D01*
X82118Y546545D01*
X81106Y546273D01*
X80079Y546069D01*
X79040Y545932D01*
X77995Y545864D01*
X76947Y545864D01*
X75902Y545932D01*
X74864Y546069D01*
X73836Y546273D01*
X72824Y546545D01*
X71832Y546881D01*
X70864Y547282D01*
X69925Y547745D01*
X69018Y548269D01*
X68147Y548851D01*
X67316Y549489D01*
X66528Y550180D01*
X65787Y550920D01*
X65096Y551708D01*
X64459Y552539D01*
X63877Y553410D01*
X63353Y554317D01*
X62890Y555257D01*
X62489Y556225D01*
X62152Y557217D01*
X61881Y558229D01*
X61677Y559256D01*
X61540Y560295D01*
X61471Y561340D01*
X61471Y562388D01*
X61540Y563433D01*
X61677Y564471D01*
X61881Y565499D01*
X62152Y566511D01*
X62489Y567503D01*
X62890Y568471D01*
X63353Y569410D01*
X63877Y570317D01*
X64459Y571188D01*
X65096Y572019D01*
X65787Y572807D01*
X66528Y573548D01*
X67316Y574239D01*
X68147Y574876D01*
X69018Y575458D01*
X69925Y575982D01*
X70864Y576445D01*
X71832Y576846D01*
X72824Y577183D01*
X73836Y577454D01*
X74864Y577659D01*
X75902Y577795D01*
X76947Y577864D01*
X77995Y577864D01*
X509795Y577864D02*
X510840Y577795D01*
X511879Y577659D01*
X512906Y577454D01*
X513918Y577183D01*
X514910Y576846D01*
X515878Y576445D01*
X516818Y575982D01*
X517725Y575458D01*
X518596Y574876D01*
X519427Y574239D01*
X520215Y573548D01*
X520955Y572807D01*
X521646Y572019D01*
X522284Y571188D01*
X522866Y570317D01*
X523390Y569410D01*
X523853Y568471D01*
X524254Y567503D01*
X524591Y566511D01*
X524862Y565499D01*
X525066Y564471D01*
X525203Y563433D01*
X525271Y562388D01*
X525271Y561340D01*
X525203Y560295D01*
X525066Y559256D01*
X524862Y558229D01*
X524591Y557217D01*
X524254Y556225D01*
X523853Y555257D01*
X523390Y554317D01*
X522866Y553410D01*
X522284Y552539D01*
X521646Y551708D01*
X520955Y550920D01*
X520215Y550180D01*
X519427Y549489D01*
X518596Y548851D01*
X517725Y548269D01*
X516818Y547745D01*
X515878Y547282D01*
X514910Y546881D01*
X513918Y546545D01*
X512906Y546273D01*
X511879Y546069D01*
X510840Y545932D01*
X509795Y545864D01*
X508747Y545864D01*
X507702Y545932D01*
X506664Y546069D01*
X505636Y546273D01*
X504624Y546545D01*
X503632Y546881D01*
X502664Y547282D01*
X501725Y547745D01*
X500818Y548269D01*
X499947Y548851D01*
X499116Y549489D01*
X498328Y550180D01*
X497587Y550920D01*
X496896Y551708D01*
X496259Y552539D01*
X495677Y553410D01*
X495153Y554317D01*
X494690Y555257D01*
X494289Y556225D01*
X493952Y557217D01*
X493681Y558229D01*
X493477Y559256D01*
X493340Y560295D01*
X493271Y561340D01*
X493271Y562388D01*
X493340Y563433D01*
X493477Y564471D01*
X493681Y565499D01*
X493952Y566511D01*
X494289Y567503D01*
X494690Y568471D01*
X495153Y569410D01*
X495677Y570317D01*
X496259Y571188D01*
X496896Y572019D01*
X497587Y572807D01*
X498328Y573548D01*
X499116Y574239D01*
X499947Y574876D01*
X500818Y575458D01*
X501725Y575982D01*
X502664Y576445D01*
X503632Y576846D01*
X504624Y577183D01*
X505636Y577454D01*
X506664Y577659D01*
X507702Y577795D01*
X508747Y577864D01*
X509795Y577864D01*
X509795Y374664D02*
X510840Y374595D01*
X511879Y374459D01*
X512906Y374254D01*
X513918Y373983D01*
X514910Y373646D01*
X515878Y373245D01*
X516818Y372782D01*
X517725Y372258D01*
X518596Y371676D01*
X519427Y371039D01*
X520215Y370348D01*
X520955Y369607D01*
X521646Y368819D01*
X522284Y367988D01*
X522866Y367117D01*
X523390Y366210D01*
X523853Y365271D01*
X524254Y364303D01*
X524591Y363311D01*
X524862Y362299D01*
X525066Y361271D01*
X525203Y360233D01*
X525271Y359188D01*
X525271Y358140D01*
X525203Y357095D01*
X525066Y356056D01*
X524862Y355029D01*
X524591Y354017D01*
X524254Y353025D01*
X523853Y352057D01*
X523390Y351117D01*
X522866Y350210D01*
X522284Y349339D01*
X521646Y348508D01*
X520955Y347720D01*
X520215Y346980D01*
X519427Y346289D01*
X518596Y345651D01*
X517725Y345069D01*
X516818Y344545D01*
X515878Y344082D01*
X514910Y343681D01*
X513918Y343345D01*
X512906Y343073D01*
X511879Y342869D01*
X510840Y342732D01*
X509795Y342664D01*
X508747Y342664D01*
X507702Y342732D01*
X506664Y342869D01*
X505636Y343073D01*
X504624Y343345D01*
X503632Y343681D01*
X502664Y344082D01*
X501725Y344545D01*
X500818Y345069D01*
X499947Y345651D01*
X499116Y346289D01*
X498328Y346980D01*
X497587Y347720D01*
X496896Y348508D01*
X496259Y349339D01*
X495677Y350210D01*
X495153Y351117D01*
X494690Y352057D01*
X494289Y353025D01*
X493952Y354017D01*
X493681Y355029D01*
X493477Y356056D01*
X493340Y357095D01*
X493271Y358140D01*
X493271Y359188D01*
X493340Y360233D01*
X493477Y361271D01*
X493681Y362299D01*
X493952Y363311D01*
X494289Y364303D01*
X494690Y365271D01*
X495153Y366210D01*
X495677Y367117D01*
X496259Y367988D01*
X496896Y368819D01*
X497587Y369607D01*
X498328Y370348D01*
X499116Y371039D01*
X499947Y371676D01*
X500818Y372258D01*
X501725Y372782D01*
X502664Y373245D01*
X503632Y373646D01*
X504624Y373983D01*
X505636Y374254D01*
X506664Y374459D01*
X507702Y374595D01*
X508747Y374664D01*
X509795Y374664D01*
X90200Y621800D02*
X90129Y620803D01*
X89986Y619813D01*
X89774Y618836D01*
X89492Y617876D01*
X89143Y616939D01*
X88727Y616029D01*
X88248Y615152D01*
X87707Y614310D01*
X87108Y613510D01*
X86453Y612754D01*
X85746Y612047D01*
X84990Y611392D01*
X84190Y610793D01*
X83348Y610252D01*
X82471Y609773D01*
X81561Y609357D01*
X80624Y609008D01*
X79665Y608726D01*
X78687Y608514D01*
X77698Y608371D01*
X76700Y608300D01*
X75700Y608300D01*
X74703Y608371D01*
X73713Y608514D01*
X72736Y608726D01*
X71776Y609008D01*
X70839Y609357D01*
X69929Y609773D01*
X69052Y610252D01*
X68210Y610793D01*
X67410Y611392D01*
X66654Y612047D01*
X65947Y612754D01*
X65292Y613510D01*
X64693Y614310D01*
X64152Y615152D01*
X63673Y616029D01*
X63257Y616939D01*
X62908Y617876D01*
X62626Y618836D01*
X62414Y619813D01*
X62271Y620803D01*
X62200Y621800D01*
X62200Y622800D01*
X62271Y623798D01*
X62414Y624787D01*
X62626Y625765D01*
X62908Y626724D01*
X63257Y627661D01*
X63673Y628571D01*
X64152Y629448D01*
X64693Y630290D01*
X65292Y631090D01*
X65947Y631846D01*
X66654Y632553D01*
X67410Y633208D01*
X68210Y633807D01*
X69052Y634348D01*
X69929Y634827D01*
X70839Y635243D01*
X71776Y635592D01*
X72736Y635874D01*
X73713Y636086D01*
X74703Y636229D01*
X75700Y636300D01*
X76700Y636300D01*
X77698Y636229D01*
X78687Y636086D01*
X79665Y635874D01*
X80624Y635592D01*
X81561Y635243D01*
X82471Y634827D01*
X83348Y634348D01*
X84190Y633807D01*
X84990Y633208D01*
X85746Y632553D01*
X86453Y631846D01*
X87108Y631090D01*
X87707Y630290D01*
X88248Y629448D01*
X88727Y628571D01*
X89143Y627661D01*
X89492Y626724D01*
X89774Y625765D01*
X89986Y624787D01*
X90129Y623798D01*
X90200Y622800D01*
X90200Y621800D01*
X90200Y931000D02*
X90129Y930003D01*
X89986Y929013D01*
X89774Y928036D01*
X89492Y927076D01*
X89143Y926139D01*
X88727Y925229D01*
X88248Y924352D01*
X87707Y923510D01*
X87108Y922710D01*
X86453Y921954D01*
X85746Y921247D01*
X84990Y920592D01*
X84190Y919993D01*
X83348Y919452D01*
X82471Y918973D01*
X81561Y918557D01*
X80624Y918208D01*
X79665Y917926D01*
X78687Y917714D01*
X77698Y917571D01*
X76700Y917500D01*
X75700Y917500D01*
X74703Y917571D01*
X73713Y917714D01*
X72736Y917926D01*
X71776Y918208D01*
X70839Y918557D01*
X69929Y918973D01*
X69052Y919452D01*
X68210Y919993D01*
X67410Y920592D01*
X66654Y921247D01*
X65947Y921954D01*
X65292Y922710D01*
X64693Y923510D01*
X64152Y924352D01*
X63673Y925229D01*
X63257Y926139D01*
X62908Y927076D01*
X62626Y928036D01*
X62414Y929013D01*
X62271Y930003D01*
X62200Y931000D01*
X62200Y932000D01*
X62271Y932998D01*
X62414Y933987D01*
X62626Y934965D01*
X62908Y935924D01*
X63257Y936861D01*
X63673Y937771D01*
X64152Y938648D01*
X64693Y939490D01*
X65292Y940290D01*
X65947Y941046D01*
X66654Y941753D01*
X67410Y942408D01*
X68210Y943007D01*
X69052Y943548D01*
X69929Y944027D01*
X70839Y944443D01*
X71776Y944792D01*
X72736Y945074D01*
X73713Y945286D01*
X74703Y945429D01*
X75700Y945500D01*
X76700Y945500D01*
X77698Y945429D01*
X78687Y945286D01*
X79665Y945074D01*
X80624Y944792D01*
X81561Y944443D01*
X82471Y944027D01*
X83348Y943548D01*
X84190Y943007D01*
X84990Y942408D01*
X85746Y941753D01*
X86453Y941046D01*
X87108Y940290D01*
X87707Y939490D01*
X88248Y938648D01*
X88727Y937771D01*
X89143Y936861D01*
X89492Y935924D01*
X89774Y934965D01*
X89986Y933987D01*
X90129Y932998D01*
X90200Y932000D01*
X90200Y931000D01*
X839400Y931000D02*
X839329Y930003D01*
X839186Y929013D01*
X838974Y928036D01*
X838692Y927076D01*
X838343Y926139D01*
X837927Y925229D01*
X837448Y924352D01*
X836907Y923510D01*
X836308Y922710D01*
X835653Y921954D01*
X834946Y921247D01*
X834190Y920592D01*
X833390Y919993D01*
X832548Y919452D01*
X831671Y918973D01*
X830761Y918557D01*
X829824Y918208D01*
X828865Y917926D01*
X827887Y917714D01*
X826898Y917571D01*
X825900Y917500D01*
X824900Y917500D01*
X823903Y917571D01*
X822913Y917714D01*
X821936Y917926D01*
X820976Y918208D01*
X820039Y918557D01*
X819129Y918973D01*
X818252Y919452D01*
X817410Y919993D01*
X816610Y920592D01*
X815854Y921247D01*
X815147Y921954D01*
X814492Y922710D01*
X813893Y923510D01*
X813352Y924352D01*
X812873Y925229D01*
X812457Y926139D01*
X812108Y927076D01*
X811826Y928036D01*
X811614Y929013D01*
X811471Y930003D01*
X811400Y931000D01*
X811400Y932000D01*
X811471Y932998D01*
X811614Y933987D01*
X811826Y934965D01*
X812108Y935924D01*
X812457Y936861D01*
X812873Y937771D01*
X813352Y938648D01*
X813893Y939490D01*
X814492Y940290D01*
X815147Y941046D01*
X815854Y941753D01*
X816610Y942408D01*
X817410Y943007D01*
X818252Y943548D01*
X819129Y944027D01*
X820039Y944443D01*
X820976Y944792D01*
X821936Y945074D01*
X822913Y945286D01*
X823903Y945429D01*
X824900Y945500D01*
X825900Y945500D01*
X826898Y945429D01*
X827887Y945286D01*
X828865Y945074D01*
X829824Y944792D01*
X830761Y944443D01*
X831671Y944027D01*
X832548Y943548D01*
X833390Y943007D01*
X834190Y942408D01*
X834946Y941753D01*
X835653Y941046D01*
X836308Y940290D01*
X836907Y939490D01*
X837448Y938648D01*
X837927Y937771D01*
X838343Y936861D01*
X838692Y935924D01*
X838974Y934965D01*
X839186Y933987D01*
X839329Y932998D01*
X839400Y932000D01*
X839400Y931000D01*
X839400Y621800D02*
X839329Y620803D01*
X839186Y619813D01*
X838974Y618836D01*
X838692Y617876D01*
X838343Y616939D01*
X837927Y616029D01*
X837448Y615152D01*
X836907Y614310D01*
X836308Y613510D01*
X835653Y612754D01*
X834946Y612047D01*
X834190Y611392D01*
X833390Y610793D01*
X832548Y610252D01*
X831671Y609773D01*
X830761Y609357D01*
X829824Y609008D01*
X828865Y608726D01*
X827887Y608514D01*
X826898Y608371D01*
X825900Y608300D01*
X824900Y608300D01*
X823903Y608371D01*
X822913Y608514D01*
X821936Y608726D01*
X820976Y609008D01*
X820039Y609357D01*
X819129Y609773D01*
X818252Y610252D01*
X817410Y610793D01*
X816610Y611392D01*
X815854Y612047D01*
X815147Y612754D01*
X814492Y613510D01*
X813893Y614310D01*
X813352Y615152D01*
X812873Y616029D01*
X812457Y616939D01*
X812108Y617876D01*
X811826Y618836D01*
X811614Y619813D01*
X811471Y620803D01*
X811400Y621800D01*
X811400Y622800D01*
X811471Y623798D01*
X811614Y624787D01*
X811826Y625765D01*
X812108Y626724D01*
X812457Y627661D01*
X812873Y628571D01*
X813352Y629448D01*
X813893Y630290D01*
X814492Y631090D01*
X815147Y631846D01*
X815854Y632553D01*
X816610Y633208D01*
X817410Y633807D01*
X818252Y634348D01*
X819129Y634827D01*
X820039Y635243D01*
X820976Y635592D01*
X821936Y635874D01*
X822913Y636086D01*
X823903Y636229D01*
X824900Y636300D01*
X825900Y636300D01*
X826898Y636229D01*
X827887Y636086D01*
X828865Y635874D01*
X829824Y635592D01*
X830761Y635243D01*
X831671Y634827D01*
X832548Y634348D01*
X833390Y633807D01*
X834190Y633208D01*
X834946Y632553D01*
X835653Y631846D01*
X836308Y631090D01*
X836907Y630290D01*
X837448Y629448D01*
X837927Y628571D01*
X838343Y627661D01*
X838692Y626724D01*
X838974Y625765D01*
X839186Y624787D01*
X839329Y623798D01*
X839400Y622800D01*
X839400Y621800D01*
M02*
