G04 EAGLE Gerber RS-274X export*
G75*
%MOMM*%
%FSLAX34Y34*%
%LPD*%
%INSilkscreen Top*%
%IPPOS*%
%AMOC8*
5,1,8,0,0,1.08239X$1,22.5*%
G01*
%ADD10R,0.304800X0.025400*%
%ADD11R,0.127000X0.025400*%
%ADD12R,0.076200X0.025400*%
%ADD13R,0.457200X0.025400*%
%ADD14R,0.050800X0.025400*%
%ADD15R,0.101600X0.025400*%
%ADD16R,0.177800X0.025400*%
%ADD17R,0.281938X0.025400*%
%ADD18R,0.152400X0.025400*%
%ADD19R,0.203200X0.025656*%
%ADD20R,0.180338X0.025656*%
%ADD21R,0.076200X0.025656*%
%ADD22R,0.127000X0.025656*%
%ADD23R,0.152400X0.025656*%
%ADD24R,0.101600X0.025656*%
%ADD25R,0.231138X0.025656*%
%ADD26R,0.203200X0.025400*%
%ADD27R,0.205738X0.025400*%
%ADD28R,0.231138X0.025400*%
%ADD29R,0.180338X0.025400*%
%ADD30R,0.025400X0.025400*%
%ADD31R,0.279400X0.025400*%
%ADD32R,0.330200X0.025400*%
%ADD33R,0.381000X0.025400*%
%ADD34R,0.355600X0.025400*%
%ADD35R,0.228600X0.025400*%
%ADD36R,0.203200X0.025650*%
%ADD37R,0.177800X0.025650*%
%ADD38R,0.180338X0.025650*%
%ADD39R,0.025400X0.025650*%
%ADD40R,0.406400X0.025650*%
%ADD41R,0.228600X0.025650*%
%ADD42R,0.231138X0.025650*%
%ADD43R,0.307338X0.025400*%
%ADD44R,0.152400X0.025650*%
%ADD45R,0.127000X0.025650*%
%ADD46R,0.254000X0.025650*%
%ADD47R,0.101600X0.025650*%
%ADD48R,0.406400X0.025400*%
%ADD49R,0.381000X0.025650*%
%ADD50R,0.482600X0.025400*%
%ADD51R,0.254000X0.025400*%
%ADD52R,0.254000X0.025656*%
%ADD53R,0.558800X0.025400*%
%ADD54R,0.256538X0.025400*%
%ADD55R,0.431800X0.025400*%
%ADD56R,0.635000X0.025400*%
%ADD57R,0.256538X0.025650*%
%ADD58R,0.508000X0.025650*%
%ADD59R,0.736600X0.025650*%
%ADD60R,0.279400X0.025650*%
%ADD61R,0.609600X0.025400*%
%ADD62R,0.838200X0.025400*%
%ADD63R,0.711200X0.025400*%
%ADD64R,0.939800X0.025400*%
%ADD65R,1.803400X0.025400*%
%ADD66R,1.879600X0.025400*%
%ADD67R,1.955800X0.025400*%
%ADD68R,2.059938X0.025400*%
%ADD69R,2.161538X0.025400*%
%ADD70R,2.263138X0.025400*%
%ADD71R,1.043937X0.025400*%
%ADD72R,1.270000X0.025400*%
%ADD73R,1.043937X0.025650*%
%ADD74R,1.270000X0.025650*%
%ADD75R,1.018538X0.025400*%
%ADD76R,1.244600X0.025400*%
%ADD77R,1.069338X0.025400*%
%ADD78R,1.272538X0.025400*%
%ADD79R,1.043937X0.025656*%
%ADD80R,0.965200X0.025656*%
%ADD81R,0.256538X0.025656*%
%ADD82R,0.789938X0.025400*%
%ADD83R,0.914400X0.025400*%
%ADD84R,0.739138X0.025400*%
%ADD85R,0.863600X0.025400*%
%ADD86R,0.688338X0.025400*%
%ADD87R,0.812800X0.025400*%
%ADD88R,0.637537X0.025400*%
%ADD89R,0.787400X0.025400*%
%ADD90R,0.586738X0.025400*%
%ADD91R,0.736600X0.025400*%
%ADD92R,0.561338X0.025400*%
%ADD93R,0.685800X0.025400*%
%ADD94R,0.510537X0.025400*%
%ADD95R,0.459738X0.025400*%
%ADD96R,0.584200X0.025400*%
%ADD97R,0.457200X0.025650*%
%ADD98R,0.508000X0.025400*%
%ADD99R,0.660400X0.025400*%
%ADD100R,1.727200X0.025400*%
%ADD101R,1.778000X0.025400*%
%ADD102R,0.482600X0.025650*%
%ADD103R,1.752600X0.025650*%
%ADD104R,0.332738X0.025650*%
%ADD105R,1.676400X0.025400*%
%ADD106R,1.625600X0.025400*%
%ADD107R,1.574800X0.025400*%
%ADD108R,1.524000X0.025400*%
%ADD109R,1.473200X0.025400*%
%ADD110R,1.473200X0.025650*%
%ADD111R,0.510537X0.025650*%
%ADD112R,1.422400X0.025400*%
%ADD113R,1.371600X0.025400*%
%ADD114R,1.320800X0.025400*%
%ADD115R,1.295400X0.025400*%
%ADD116R,0.482600X0.025656*%
%ADD117R,1.371600X0.025656*%
%ADD118R,0.510537X0.025656*%
%ADD119R,1.625600X0.025650*%
%ADD120R,1.752600X0.025400*%
%ADD121R,1.651000X0.025400*%
%ADD122R,0.609600X0.025650*%
%ADD123R,0.358137X0.025400*%
%ADD124R,0.434338X0.025400*%
%ADD125R,0.485137X0.025400*%
%ADD126R,0.612138X0.025400*%
%ADD127R,0.662938X0.025650*%
%ADD128R,0.713738X0.025400*%
%ADD129R,0.764538X0.025400*%
%ADD130R,0.815338X0.025400*%
%ADD131R,0.533400X0.025400*%
%ADD132R,0.866138X0.025400*%
%ADD133R,0.916938X0.025400*%
%ADD134R,0.967738X0.025400*%
%ADD135R,1.323338X0.025400*%
%ADD136R,0.762000X0.025400*%
%ADD137R,1.323338X0.025656*%
%ADD138R,1.348738X0.025400*%
%ADD139R,1.066800X0.025400*%
%ADD140R,1.041400X0.025400*%
%ADD141R,1.374138X0.025400*%
%ADD142R,1.399538X0.025400*%
%ADD143R,1.117600X0.025400*%
%ADD144R,2.364737X0.025400*%
%ADD145R,2.263138X0.025650*%
%ADD146R,1.854200X0.025400*%
%ADD147R,0.990600X0.025400*%
%ADD148R,0.558800X0.025650*%
%ADD149R,0.381000X0.025656*%
%ADD150C,0.127000*%
%ADD151C,0.152400*%
%ADD152C,0.203200*%


D10*
X821869Y329004D03*
D11*
X828880Y329004D03*
D12*
X830404Y329004D03*
D13*
X835611Y329004D03*
D14*
X838913Y329004D03*
D12*
X840056Y329004D03*
D15*
X841453Y329004D03*
D12*
X846152Y329004D03*
D15*
X847549Y329004D03*
D16*
X850978Y329004D03*
D17*
X854038Y329004D03*
D10*
X821869Y329258D03*
D16*
X828626Y329258D03*
D15*
X830531Y329258D03*
D13*
X835611Y329258D03*
D16*
X839548Y329258D03*
D18*
X841707Y329258D03*
D11*
X845898Y329258D03*
X847676Y329258D03*
D18*
X851105Y329258D03*
D17*
X854038Y329258D03*
D19*
X821869Y329513D03*
D20*
X828359Y329513D03*
D21*
X830912Y329513D03*
D19*
X834849Y329513D03*
D22*
X837262Y329513D03*
X839294Y329513D03*
X842088Y329513D03*
X845644Y329513D03*
D23*
X848057Y329513D03*
D24*
X851105Y329513D03*
D25*
X854038Y329513D03*
D26*
X821869Y329768D03*
D27*
X828232Y329768D03*
D14*
X831293Y329768D03*
D26*
X834849Y329768D03*
D15*
X837389Y329768D03*
X839167Y329768D03*
X842215Y329768D03*
D18*
X845517Y329768D03*
D11*
X848184Y329768D03*
D12*
X851232Y329768D03*
D28*
X854038Y329768D03*
D26*
X821869Y330022D03*
D29*
X828105Y330022D03*
D14*
X831293Y330022D03*
D26*
X834849Y330022D03*
D12*
X837516Y330022D03*
X839040Y330022D03*
D11*
X842342Y330022D03*
D16*
X845390Y330022D03*
D18*
X848311Y330022D03*
D14*
X851359Y330022D03*
D28*
X853784Y330022D03*
D26*
X821869Y330276D03*
D29*
X828105Y330276D03*
D30*
X831420Y330276D03*
D26*
X834849Y330276D03*
D12*
X837516Y330276D03*
X839040Y330276D03*
D11*
X842342Y330276D03*
D16*
X845390Y330276D03*
X848438Y330276D03*
D12*
X851486Y330276D03*
D28*
X853784Y330276D03*
D26*
X821869Y330530D03*
D29*
X828105Y330530D03*
D30*
X831420Y330530D03*
D26*
X834849Y330530D03*
D14*
X837643Y330530D03*
X838913Y330530D03*
D16*
X842342Y330530D03*
D26*
X845263Y330530D03*
D16*
X848438Y330530D03*
D14*
X851613Y330530D03*
D28*
X853530Y330530D03*
D26*
X821869Y330784D03*
D29*
X828105Y330784D03*
D30*
X831420Y330784D03*
D26*
X834849Y330784D03*
D14*
X837643Y330784D03*
X838913Y330784D03*
D26*
X842215Y330784D03*
X845263Y330784D03*
X848565Y330784D03*
D30*
X851740Y330784D03*
D28*
X853530Y330784D03*
D26*
X821869Y331038D03*
D29*
X828105Y331038D03*
D30*
X831420Y331038D03*
D26*
X834849Y331038D03*
D30*
X837770Y331038D03*
D14*
X838913Y331038D03*
D31*
X841834Y331038D03*
D26*
X845263Y331038D03*
X848565Y331038D03*
D28*
X853276Y331038D03*
D26*
X821869Y331292D03*
D29*
X828105Y331292D03*
D30*
X831420Y331292D03*
D26*
X834849Y331292D03*
D32*
X841580Y331292D03*
D26*
X845263Y331292D03*
X848565Y331292D03*
D28*
X853276Y331292D03*
D33*
X822758Y331546D03*
D29*
X828105Y331546D03*
D30*
X831420Y331546D03*
D26*
X834849Y331546D03*
D34*
X841453Y331546D03*
D35*
X845136Y331546D03*
D26*
X848565Y331546D03*
D28*
X853022Y331546D03*
D26*
X821869Y331800D03*
D16*
X824282Y331800D03*
D29*
X828105Y331800D03*
D30*
X831420Y331800D03*
D26*
X834849Y331800D03*
D33*
X841072Y331800D03*
D35*
X845136Y331800D03*
D26*
X848565Y331800D03*
D28*
X853022Y331800D03*
D36*
X821869Y332056D03*
D37*
X824536Y332056D03*
D38*
X828105Y332056D03*
D39*
X831420Y332056D03*
D36*
X834849Y332056D03*
D40*
X840945Y332056D03*
D41*
X845136Y332056D03*
D36*
X848565Y332056D03*
D42*
X852768Y332056D03*
D26*
X821869Y332311D03*
D16*
X824536Y332311D03*
D29*
X828105Y332311D03*
D30*
X831420Y332311D03*
D26*
X834849Y332311D03*
D33*
X840818Y332311D03*
D35*
X845136Y332311D03*
D26*
X848565Y332311D03*
D28*
X852768Y332311D03*
D26*
X821869Y332565D03*
D16*
X824790Y332565D03*
D29*
X828105Y332565D03*
D30*
X831420Y332565D03*
D26*
X834849Y332565D03*
D33*
X840564Y332565D03*
D35*
X845136Y332565D03*
D26*
X848565Y332565D03*
D28*
X852514Y332565D03*
D26*
X821869Y332819D03*
D16*
X824790Y332819D03*
D29*
X828105Y332819D03*
D30*
X831420Y332819D03*
D26*
X834849Y332819D03*
D32*
X840310Y332819D03*
D26*
X845263Y332819D03*
X848565Y332819D03*
D28*
X852514Y332819D03*
D26*
X821869Y333073D03*
D16*
X824790Y333073D03*
D29*
X828105Y333073D03*
D30*
X831420Y333073D03*
D26*
X834849Y333073D03*
D31*
X840056Y333073D03*
D14*
X842723Y333073D03*
D26*
X845263Y333073D03*
X848565Y333073D03*
D28*
X852260Y333073D03*
D26*
X821869Y333327D03*
D16*
X824790Y333327D03*
D29*
X828105Y333327D03*
D30*
X831420Y333327D03*
D26*
X834849Y333327D03*
D35*
X839802Y333327D03*
D14*
X842723Y333327D03*
D26*
X845263Y333327D03*
D16*
X848438Y333327D03*
D43*
X852641Y333327D03*
D26*
X821869Y333581D03*
D16*
X824790Y333581D03*
D29*
X828105Y333581D03*
D30*
X831420Y333581D03*
D26*
X834849Y333581D03*
D16*
X839548Y333581D03*
D14*
X842723Y333581D03*
D26*
X845263Y333581D03*
D16*
X848438Y333581D03*
D28*
X852006Y333581D03*
D14*
X853924Y333581D03*
D26*
X821869Y333835D03*
D16*
X824790Y333835D03*
D29*
X828105Y333835D03*
D30*
X831420Y333835D03*
D26*
X834849Y333835D03*
D18*
X839421Y333835D03*
D12*
X842596Y333835D03*
D16*
X845390Y333835D03*
X848438Y333835D03*
D28*
X852006Y333835D03*
D14*
X854178Y333835D03*
D26*
X821869Y334089D03*
D16*
X824790Y334089D03*
D29*
X828105Y334089D03*
D14*
X831547Y334089D03*
D26*
X834849Y334089D03*
D11*
X839548Y334089D03*
D12*
X842596Y334089D03*
D16*
X845390Y334089D03*
D18*
X848311Y334089D03*
D35*
X851740Y334089D03*
D14*
X854178Y334089D03*
D26*
X821869Y334343D03*
D16*
X824536Y334343D03*
D29*
X828105Y334343D03*
D12*
X831420Y334343D03*
D26*
X834849Y334343D03*
D11*
X839548Y334343D03*
D15*
X842469Y334343D03*
D18*
X845517Y334343D03*
D11*
X848184Y334343D03*
D35*
X851740Y334343D03*
D12*
X854305Y334343D03*
D36*
X821869Y334598D03*
D44*
X824409Y334598D03*
D42*
X828105Y334598D03*
D45*
X831420Y334598D03*
D36*
X834849Y334598D03*
D45*
X839802Y334598D03*
X842342Y334598D03*
X845644Y334598D03*
D44*
X848057Y334598D03*
D46*
X851613Y334598D03*
D47*
X854432Y334598D03*
D13*
X822631Y334854D03*
D17*
X828105Y334854D03*
D16*
X831420Y334854D03*
D10*
X834849Y334854D03*
D11*
X840056Y334854D03*
D12*
X841580Y334854D03*
D14*
X842723Y334854D03*
D11*
X845898Y334854D03*
X847676Y334854D03*
D43*
X851625Y334854D03*
D26*
X854432Y334854D03*
D48*
X822377Y335108D03*
D17*
X828105Y335108D03*
D16*
X831420Y335108D03*
D10*
X834849Y335108D03*
D15*
X840183Y335108D03*
D14*
X841453Y335108D03*
D30*
X842850Y335108D03*
D12*
X846152Y335108D03*
D15*
X847549Y335108D03*
D43*
X851625Y335108D03*
D26*
X854432Y335108D03*
D12*
X838024Y336378D03*
D16*
X838024Y336632D03*
D31*
X838024Y336886D03*
D49*
X838024Y337141D03*
D50*
X838024Y337396D03*
D51*
X836627Y337650D03*
X839421Y337650D03*
X836119Y337904D03*
X839929Y337904D03*
X835611Y338158D03*
X840437Y338158D03*
D31*
X835230Y338412D03*
D12*
X837770Y338412D03*
D31*
X840818Y338412D03*
X834722Y338666D03*
D16*
X837770Y338666D03*
D31*
X841326Y338666D03*
X834214Y338920D03*
X837770Y338920D03*
X841834Y338920D03*
X833706Y339174D03*
D33*
X837770Y339174D03*
D51*
X842215Y339174D03*
D31*
X833198Y339428D03*
D50*
X837770Y339428D03*
D51*
X842723Y339428D03*
D52*
X832817Y339683D03*
X836373Y339683D03*
X839167Y339683D03*
X843231Y339683D03*
D51*
X832309Y339939D03*
X835865Y339939D03*
X839675Y339939D03*
D31*
X843612Y339939D03*
D51*
X831801Y340193D03*
X835357Y340193D03*
D32*
X840564Y340193D03*
D31*
X844120Y340193D03*
X831420Y340447D03*
X834976Y340447D03*
D32*
X840818Y340447D03*
D31*
X844628Y340447D03*
X830912Y340701D03*
X834468Y340701D03*
X841072Y340701D03*
X845136Y340701D03*
X830404Y340955D03*
X833960Y340955D03*
X841580Y340955D03*
D51*
X845517Y340955D03*
D31*
X829896Y341209D03*
X833452Y341209D03*
D33*
X841580Y341209D03*
D51*
X846025Y341209D03*
D31*
X829388Y341463D03*
D51*
X833071Y341463D03*
D13*
X841453Y341463D03*
D51*
X846533Y341463D03*
X829007Y341717D03*
D32*
X832944Y341717D03*
D53*
X841453Y341717D03*
D31*
X846914Y341717D03*
D54*
X828486Y341971D03*
D55*
X832944Y341971D03*
D56*
X841580Y341971D03*
D31*
X847422Y341971D03*
D57*
X827978Y342226D03*
D58*
X832817Y342226D03*
D59*
X841580Y342226D03*
D60*
X847930Y342226D03*
D17*
X827597Y342481D03*
D61*
X832817Y342481D03*
D62*
X841580Y342481D03*
D31*
X848438Y342481D03*
D17*
X827089Y342735D03*
D63*
X832817Y342735D03*
D64*
X841580Y342735D03*
D51*
X848819Y342735D03*
D17*
X826581Y342989D03*
D65*
X837770Y342989D03*
D51*
X849327Y342989D03*
D31*
X826060Y343243D03*
D66*
X837897Y343243D03*
D51*
X849835Y343243D03*
D31*
X825552Y343497D03*
D67*
X837770Y343497D03*
D31*
X850216Y343497D03*
D51*
X825171Y343751D03*
D68*
X837757Y343751D03*
D31*
X850724Y343751D03*
D51*
X824663Y344005D03*
D69*
X837757Y344005D03*
D31*
X851232Y344005D03*
D51*
X824155Y344259D03*
D70*
X837757Y344259D03*
D51*
X851613Y344259D03*
D31*
X823774Y344513D03*
D71*
X831153Y344513D03*
D72*
X843231Y344513D03*
D54*
X852133Y344513D03*
D60*
X823266Y344768D03*
D73*
X830645Y344768D03*
D74*
X843739Y344768D03*
D57*
X852641Y344768D03*
D31*
X822758Y345024D03*
D75*
X830264Y345024D03*
D72*
X844247Y345024D03*
D17*
X853022Y345024D03*
D31*
X822250Y345278D03*
D71*
X829883Y345278D03*
D76*
X844628Y345278D03*
D17*
X853530Y345278D03*
D31*
X821742Y345532D03*
D71*
X829375Y345532D03*
D76*
X845136Y345532D03*
D17*
X854038Y345532D03*
D51*
X821361Y345786D03*
D71*
X828867Y345786D03*
D72*
X845517Y345786D03*
D31*
X854559Y345786D03*
D51*
X820853Y346040D03*
D71*
X828359Y346040D03*
D72*
X846025Y346040D03*
D51*
X854940Y346040D03*
X820345Y346294D03*
D71*
X827851Y346294D03*
D72*
X846533Y346294D03*
D51*
X855448Y346294D03*
D31*
X819964Y346548D03*
D77*
X827470Y346548D03*
D78*
X847053Y346548D03*
D51*
X855956Y346548D03*
X819583Y346802D03*
D77*
X826962Y346802D03*
D14*
X837897Y346802D03*
D78*
X847561Y346802D03*
D51*
X856210Y346802D03*
D26*
X819329Y347056D03*
D71*
X826581Y347056D03*
D15*
X837897Y347056D03*
D78*
X847815Y347056D03*
D26*
X856464Y347056D03*
D23*
X819075Y347311D03*
D79*
X826073Y347311D03*
D23*
X837897Y347311D03*
D80*
X846787Y347311D03*
D81*
X853403Y347311D03*
D23*
X856718Y347311D03*
D11*
X818948Y347566D03*
D51*
X821615Y347566D03*
D82*
X827089Y347566D03*
D26*
X837897Y347566D03*
D83*
X847041Y347566D03*
D54*
X853911Y347566D03*
D11*
X856845Y347566D03*
X818948Y347820D03*
D51*
X821361Y347820D03*
D84*
X826835Y347820D03*
D26*
X837897Y347820D03*
D85*
X847295Y347820D03*
D54*
X854165Y347820D03*
D11*
X856845Y347820D03*
X818948Y348074D03*
D26*
X821107Y348074D03*
D86*
X826581Y348074D03*
D51*
X837897Y348074D03*
D87*
X847549Y348074D03*
D26*
X854432Y348074D03*
D11*
X856845Y348074D03*
X818948Y348328D03*
D18*
X820853Y348328D03*
D88*
X826327Y348328D03*
D31*
X838024Y348328D03*
D89*
X847676Y348328D03*
D18*
X854686Y348328D03*
D11*
X856845Y348328D03*
X818948Y348582D03*
X820726Y348582D03*
D90*
X826073Y348582D03*
D10*
X837897Y348582D03*
D91*
X847930Y348582D03*
D11*
X854813Y348582D03*
X856845Y348582D03*
X818948Y348836D03*
X820726Y348836D03*
D92*
X825946Y348836D03*
D34*
X837897Y348836D03*
D93*
X848184Y348836D03*
D11*
X854813Y348836D03*
X856845Y348836D03*
X818948Y349090D03*
X820726Y349090D03*
D94*
X825692Y349090D03*
D34*
X837897Y349090D03*
D56*
X848438Y349090D03*
D11*
X854813Y349090D03*
X856845Y349090D03*
X818948Y349344D03*
X820726Y349344D03*
D95*
X825438Y349344D03*
D48*
X837897Y349344D03*
D96*
X848692Y349344D03*
D11*
X854813Y349344D03*
X856845Y349344D03*
X818948Y349598D03*
X820726Y349598D03*
D48*
X825171Y349598D03*
D13*
X837897Y349598D03*
D53*
X848819Y349598D03*
D11*
X854813Y349598D03*
X856845Y349598D03*
D45*
X818948Y349854D03*
X820726Y349854D03*
D49*
X825044Y349854D03*
D97*
X837897Y349854D03*
D58*
X849073Y349854D03*
D45*
X854813Y349854D03*
X856845Y349854D03*
D11*
X818948Y350109D03*
X820726Y350109D03*
D32*
X824790Y350109D03*
D98*
X837897Y350109D03*
D13*
X849327Y350109D03*
D11*
X854813Y350109D03*
X856845Y350109D03*
X818948Y350363D03*
X820726Y350363D03*
D31*
X824536Y350363D03*
D53*
X837897Y350363D03*
D48*
X849581Y350363D03*
D11*
X854813Y350363D03*
X856845Y350363D03*
X818948Y350617D03*
X820726Y350617D03*
D51*
X824155Y350617D03*
D53*
X837897Y350617D03*
D34*
X849835Y350617D03*
D11*
X854813Y350617D03*
X856845Y350617D03*
X818948Y350871D03*
X820726Y350871D03*
D51*
X823647Y350871D03*
D61*
X837897Y350871D03*
D32*
X849962Y350871D03*
D11*
X854813Y350871D03*
X856845Y350871D03*
X818948Y351125D03*
X820726Y351125D03*
D31*
X823520Y351125D03*
D61*
X837897Y351125D03*
D31*
X850216Y351125D03*
D11*
X854813Y351125D03*
X856845Y351125D03*
X818948Y351379D03*
X820726Y351379D03*
D32*
X823266Y351379D03*
D99*
X837897Y351379D03*
D51*
X850597Y351379D03*
D11*
X854813Y351379D03*
X856845Y351379D03*
X818948Y351633D03*
D50*
X822504Y351633D03*
D100*
X837897Y351633D03*
D51*
X851105Y351633D03*
D11*
X854813Y351633D03*
X856845Y351633D03*
X818948Y351887D03*
D50*
X822504Y351887D03*
D101*
X837897Y351887D03*
D51*
X851613Y351887D03*
D11*
X854813Y351887D03*
X856845Y351887D03*
X818948Y352141D03*
D50*
X822504Y352141D03*
D101*
X837897Y352141D03*
D43*
X851879Y352141D03*
D11*
X854813Y352141D03*
X856845Y352141D03*
D45*
X818948Y352396D03*
D102*
X822504Y352396D03*
D103*
X838024Y352396D03*
D104*
X852006Y352396D03*
D45*
X854813Y352396D03*
X856845Y352396D03*
D11*
X818948Y352651D03*
D50*
X822504Y352651D03*
D100*
X837897Y352651D03*
D94*
X852895Y352651D03*
D11*
X856845Y352651D03*
X818948Y352905D03*
D50*
X822504Y352905D03*
D105*
X837897Y352905D03*
D94*
X852895Y352905D03*
D11*
X856845Y352905D03*
X818948Y353159D03*
D50*
X822504Y353159D03*
D105*
X837897Y353159D03*
D94*
X852895Y353159D03*
D11*
X856845Y353159D03*
X818948Y353413D03*
D50*
X822504Y353413D03*
D106*
X837897Y353413D03*
D94*
X852895Y353413D03*
D11*
X856845Y353413D03*
X818948Y353667D03*
D50*
X822504Y353667D03*
D106*
X837897Y353667D03*
D94*
X852895Y353667D03*
D11*
X856845Y353667D03*
X818948Y353921D03*
D50*
X822504Y353921D03*
D107*
X837897Y353921D03*
D94*
X852895Y353921D03*
D11*
X856845Y353921D03*
X818948Y354175D03*
D50*
X822504Y354175D03*
D107*
X837897Y354175D03*
D94*
X852895Y354175D03*
D11*
X856845Y354175D03*
X818948Y354429D03*
D50*
X822504Y354429D03*
D108*
X837897Y354429D03*
D94*
X852895Y354429D03*
D11*
X856845Y354429D03*
X818948Y354683D03*
D50*
X822504Y354683D03*
D109*
X837897Y354683D03*
D94*
X852895Y354683D03*
D11*
X856845Y354683D03*
D45*
X818948Y354939D03*
D102*
X822504Y354939D03*
D110*
X837897Y354939D03*
D111*
X852895Y354939D03*
D45*
X856845Y354939D03*
D11*
X818948Y355194D03*
D50*
X822504Y355194D03*
D112*
X837897Y355194D03*
D94*
X852895Y355194D03*
D11*
X856845Y355194D03*
X818948Y355448D03*
D50*
X822504Y355448D03*
D112*
X837897Y355448D03*
D94*
X852895Y355448D03*
D11*
X856845Y355448D03*
X818948Y355702D03*
D50*
X822504Y355702D03*
D113*
X837897Y355702D03*
D94*
X852895Y355702D03*
D11*
X856845Y355702D03*
X818948Y355956D03*
D50*
X822504Y355956D03*
D113*
X837897Y355956D03*
D94*
X852895Y355956D03*
D11*
X856845Y355956D03*
X818948Y356210D03*
D50*
X822504Y356210D03*
D114*
X837897Y356210D03*
D94*
X852895Y356210D03*
D11*
X856845Y356210D03*
X818948Y356464D03*
D50*
X822504Y356464D03*
D115*
X838024Y356464D03*
D94*
X852895Y356464D03*
D11*
X856845Y356464D03*
X818948Y356718D03*
D50*
X822504Y356718D03*
D72*
X837897Y356718D03*
D94*
X852895Y356718D03*
D11*
X856845Y356718D03*
X818948Y356972D03*
D50*
X822504Y356972D03*
D114*
X837897Y356972D03*
D94*
X852895Y356972D03*
D11*
X856845Y356972D03*
X818948Y357226D03*
D50*
X822504Y357226D03*
D114*
X837897Y357226D03*
D94*
X852895Y357226D03*
D11*
X856845Y357226D03*
D22*
X818948Y357481D03*
D116*
X822504Y357481D03*
D117*
X837897Y357481D03*
D118*
X852895Y357481D03*
D22*
X856845Y357481D03*
D11*
X818948Y357736D03*
D50*
X822504Y357736D03*
D113*
X837897Y357736D03*
D94*
X852895Y357736D03*
D11*
X856845Y357736D03*
X818948Y357990D03*
D50*
X822504Y357990D03*
D112*
X837897Y357990D03*
D94*
X852895Y357990D03*
D11*
X856845Y357990D03*
X818948Y358244D03*
D50*
X822504Y358244D03*
D112*
X837897Y358244D03*
D94*
X852895Y358244D03*
D11*
X856845Y358244D03*
X818948Y358498D03*
D50*
X822504Y358498D03*
D109*
X837897Y358498D03*
D94*
X852895Y358498D03*
D11*
X856845Y358498D03*
X818948Y358752D03*
D50*
X822504Y358752D03*
D109*
X837897Y358752D03*
D94*
X852895Y358752D03*
D11*
X856845Y358752D03*
X818948Y359006D03*
D50*
X822504Y359006D03*
D108*
X837897Y359006D03*
D94*
X852895Y359006D03*
D11*
X856845Y359006D03*
X818948Y359260D03*
D50*
X822504Y359260D03*
D107*
X837897Y359260D03*
D94*
X852895Y359260D03*
D11*
X856845Y359260D03*
X818948Y359514D03*
D50*
X822504Y359514D03*
D107*
X837897Y359514D03*
D94*
X852895Y359514D03*
D11*
X856845Y359514D03*
X818948Y359768D03*
D50*
X822504Y359768D03*
D106*
X837897Y359768D03*
D94*
X852895Y359768D03*
D11*
X856845Y359768D03*
D45*
X818948Y360024D03*
D102*
X822504Y360024D03*
D119*
X837897Y360024D03*
D111*
X852895Y360024D03*
D45*
X856845Y360024D03*
D11*
X818948Y360279D03*
D50*
X822504Y360279D03*
D105*
X837897Y360279D03*
D94*
X852895Y360279D03*
D11*
X856845Y360279D03*
X818948Y360533D03*
D50*
X822504Y360533D03*
D105*
X837897Y360533D03*
D94*
X852895Y360533D03*
D11*
X856845Y360533D03*
X818948Y360787D03*
D50*
X822504Y360787D03*
D100*
X837897Y360787D03*
D94*
X852895Y360787D03*
D11*
X856845Y360787D03*
X818948Y361041D03*
D50*
X822504Y361041D03*
D120*
X838024Y361041D03*
D94*
X852895Y361041D03*
D11*
X856845Y361041D03*
X818948Y361295D03*
D50*
X822504Y361295D03*
D101*
X837897Y361295D03*
D94*
X852895Y361295D03*
D11*
X856845Y361295D03*
X818948Y361549D03*
D50*
X822504Y361549D03*
D101*
X837897Y361549D03*
D94*
X852895Y361549D03*
D11*
X856845Y361549D03*
X818948Y361803D03*
D50*
X822504Y361803D03*
D100*
X837897Y361803D03*
D94*
X852895Y361803D03*
D11*
X856845Y361803D03*
X818948Y362057D03*
D50*
X822504Y362057D03*
D121*
X837770Y362057D03*
D94*
X852895Y362057D03*
D11*
X856845Y362057D03*
X818948Y362311D03*
X820726Y362311D03*
D10*
X823393Y362311D03*
D61*
X837897Y362311D03*
D94*
X852895Y362311D03*
D11*
X856845Y362311D03*
D45*
X818948Y362566D03*
X820726Y362566D03*
D60*
X823774Y362566D03*
D122*
X837897Y362566D03*
D111*
X852895Y362566D03*
D45*
X856845Y362566D03*
D11*
X818948Y362821D03*
X820726Y362821D03*
D31*
X824282Y362821D03*
D53*
X837897Y362821D03*
D94*
X852895Y362821D03*
D11*
X856845Y362821D03*
X818948Y363075D03*
X820726Y363075D03*
D31*
X824790Y363075D03*
D53*
X837897Y363075D03*
D123*
X852133Y363075D03*
D11*
X854813Y363075D03*
X856845Y363075D03*
X818948Y363329D03*
X820726Y363329D03*
D32*
X825044Y363329D03*
D98*
X837897Y363329D03*
D43*
X851879Y363329D03*
D11*
X854813Y363329D03*
X856845Y363329D03*
X818948Y363583D03*
X820726Y363583D03*
D33*
X825298Y363583D03*
D13*
X837897Y363583D03*
D51*
X851613Y363583D03*
D11*
X854813Y363583D03*
X856845Y363583D03*
X818948Y363837D03*
X820726Y363837D03*
D124*
X825565Y363837D03*
D13*
X837897Y363837D03*
D51*
X851105Y363837D03*
D11*
X854813Y363837D03*
X856845Y363837D03*
X818948Y364091D03*
X820726Y364091D03*
D125*
X825819Y364091D03*
D48*
X837897Y364091D03*
D51*
X850851Y364091D03*
D11*
X854813Y364091D03*
X856845Y364091D03*
X818948Y364345D03*
X820726Y364345D03*
D94*
X825946Y364345D03*
D34*
X837897Y364345D03*
D51*
X850343Y364345D03*
D11*
X854813Y364345D03*
X856845Y364345D03*
X818948Y364599D03*
X820726Y364599D03*
D92*
X826200Y364599D03*
D34*
X837897Y364599D03*
D10*
X850089Y364599D03*
D11*
X854813Y364599D03*
X856845Y364599D03*
X818948Y364853D03*
X820726Y364853D03*
D126*
X826454Y364853D03*
D10*
X837897Y364853D03*
D34*
X849835Y364853D03*
D11*
X854813Y364853D03*
X856845Y364853D03*
D45*
X818948Y365109D03*
X820726Y365109D03*
D127*
X826708Y365109D03*
D46*
X837897Y365109D03*
D40*
X849581Y365109D03*
D45*
X854813Y365109D03*
X856845Y365109D03*
D11*
X818948Y365364D03*
X820726Y365364D03*
D128*
X826962Y365364D03*
D51*
X837897Y365364D03*
D55*
X849454Y365364D03*
D11*
X854813Y365364D03*
X856845Y365364D03*
X818948Y365618D03*
X820726Y365618D03*
D129*
X827216Y365618D03*
D26*
X837897Y365618D03*
D50*
X849200Y365618D03*
D11*
X854813Y365618D03*
X856845Y365618D03*
X818948Y365872D03*
X820726Y365872D03*
D130*
X827470Y365872D03*
D26*
X837897Y365872D03*
D131*
X848946Y365872D03*
D11*
X854813Y365872D03*
X856845Y365872D03*
X818948Y366126D03*
D18*
X820853Y366126D03*
D132*
X827724Y366126D03*
D18*
X837897Y366126D03*
D96*
X848692Y366126D03*
D18*
X854686Y366126D03*
D11*
X856845Y366126D03*
X818948Y366380D03*
D26*
X821107Y366380D03*
D133*
X827978Y366380D03*
D15*
X837897Y366380D03*
D61*
X848565Y366380D03*
D26*
X854432Y366380D03*
D11*
X856845Y366380D03*
X818948Y366634D03*
D51*
X821361Y366634D03*
D134*
X828232Y366634D03*
D14*
X837897Y366634D03*
D99*
X848311Y366634D03*
D54*
X854165Y366634D03*
D11*
X856845Y366634D03*
X818948Y366888D03*
D31*
X821742Y366888D03*
D75*
X828486Y366888D03*
D63*
X848057Y366888D03*
D17*
X853784Y366888D03*
D11*
X856845Y366888D03*
X818948Y367142D03*
D135*
X827470Y367142D03*
D136*
X847803Y367142D03*
D54*
X853403Y367142D03*
D11*
X856845Y367142D03*
D18*
X819075Y367396D03*
D135*
X827978Y367396D03*
D71*
X848958Y367396D03*
D18*
X856718Y367396D03*
D19*
X819329Y367651D03*
D137*
X828486Y367651D03*
D79*
X848450Y367651D03*
D19*
X856464Y367651D03*
D51*
X819583Y367907D03*
D138*
X828867Y367907D03*
D77*
X848069Y367907D03*
D51*
X856210Y367907D03*
D31*
X819964Y368161D03*
D138*
X829375Y368161D03*
D139*
X847549Y368161D03*
D31*
X855829Y368161D03*
X820472Y368415D03*
D138*
X829883Y368415D03*
D140*
X847168Y368415D03*
D51*
X855448Y368415D03*
X820853Y368669D03*
D141*
X830264Y368669D03*
D140*
X846660Y368669D03*
D51*
X854940Y368669D03*
X821361Y368923D03*
D142*
X830645Y368923D03*
D139*
X846279Y368923D03*
D51*
X854432Y368923D03*
X821869Y369177D03*
D138*
X831407Y369177D03*
D143*
X846025Y369177D03*
D17*
X854038Y369177D03*
D31*
X822250Y369431D03*
D138*
X831915Y369431D03*
D140*
X845136Y369431D03*
D12*
X850978Y369431D03*
D17*
X853530Y369431D03*
D31*
X822758Y369685D03*
D141*
X832296Y369685D03*
D140*
X844882Y369685D03*
D17*
X853022Y369685D03*
D31*
X823266Y369939D03*
D144*
X837757Y369939D03*
D17*
X852514Y369939D03*
D60*
X823774Y370194D03*
D145*
X837757Y370194D03*
D57*
X852133Y370194D03*
D31*
X824282Y370449D03*
D69*
X837757Y370449D03*
D51*
X851613Y370449D03*
X824663Y370703D03*
D68*
X837757Y370703D03*
D31*
X851232Y370703D03*
D51*
X825171Y370957D03*
D67*
X837770Y370957D03*
D31*
X850724Y370957D03*
D51*
X825679Y371211D03*
D146*
X837770Y371211D03*
D31*
X850216Y371211D03*
X826060Y371465D03*
D147*
X833960Y371465D03*
D63*
X843231Y371465D03*
D31*
X849708Y371465D03*
D17*
X826581Y371719D03*
D64*
X833960Y371719D03*
D61*
X843231Y371719D03*
D51*
X849327Y371719D03*
D17*
X827089Y371973D03*
D62*
X833960Y371973D03*
D98*
X843231Y371973D03*
D51*
X848819Y371973D03*
D17*
X827597Y372227D03*
D91*
X833960Y372227D03*
D48*
X843231Y372227D03*
D51*
X848311Y372227D03*
D17*
X828105Y372481D03*
D56*
X833960Y372481D03*
D10*
X843231Y372481D03*
D31*
X847930Y372481D03*
D57*
X828486Y372736D03*
D148*
X834087Y372736D03*
D46*
X842977Y372736D03*
D60*
X847422Y372736D03*
D51*
X829007Y372992D03*
D13*
X834087Y372992D03*
D51*
X842469Y372992D03*
D31*
X846914Y372992D03*
D51*
X829515Y373246D03*
D34*
X834087Y373246D03*
D31*
X842088Y373246D03*
X846406Y373246D03*
X829896Y373500D03*
X833960Y373500D03*
X841580Y373500D03*
D51*
X846025Y373500D03*
D31*
X830404Y373754D03*
X834468Y373754D03*
X841072Y373754D03*
D51*
X845517Y373754D03*
D31*
X830912Y374008D03*
D32*
X834722Y374008D03*
D31*
X840564Y374008D03*
D51*
X845009Y374008D03*
D31*
X831420Y374262D03*
D34*
X835103Y374262D03*
D31*
X840056Y374262D03*
X844628Y374262D03*
X831928Y374516D03*
D51*
X835865Y374516D03*
X839675Y374516D03*
D31*
X844120Y374516D03*
D51*
X832309Y374770D03*
X836373Y374770D03*
X839167Y374770D03*
D31*
X843612Y374770D03*
D51*
X832817Y375024D03*
D55*
X837770Y375024D03*
D31*
X843104Y375024D03*
D52*
X833325Y375279D03*
D149*
X837770Y375279D03*
D52*
X842723Y375279D03*
D31*
X833706Y375534D03*
X837770Y375534D03*
D51*
X842215Y375534D03*
D31*
X834214Y375788D03*
D16*
X837770Y375788D03*
D31*
X841834Y375788D03*
X834722Y376042D03*
D12*
X837770Y376042D03*
D31*
X841326Y376042D03*
X835230Y376296D03*
X840818Y376296D03*
X835738Y376550D03*
X840310Y376550D03*
D51*
X836119Y376804D03*
X839929Y376804D03*
X836627Y377058D03*
X839421Y377058D03*
D55*
X838024Y377312D03*
D33*
X838024Y377566D03*
D60*
X838024Y377821D03*
D16*
X838024Y378077D03*
D12*
X838024Y378331D03*
D150*
X611794Y540516D02*
X611796Y540544D01*
X611802Y540571D01*
X611811Y540597D01*
X611824Y540622D01*
X611841Y540645D01*
X611860Y540665D01*
X611882Y540682D01*
X611906Y540696D01*
X611932Y540706D01*
X611959Y540713D01*
X611987Y540716D01*
X612015Y540715D01*
X612042Y540710D01*
X612069Y540701D01*
X612094Y540689D01*
X612117Y540674D01*
X612138Y540655D01*
X612156Y540634D01*
X612171Y540610D01*
X612182Y540584D01*
X612190Y540558D01*
X612194Y540530D01*
X612194Y540502D01*
X612190Y540474D01*
X612182Y540448D01*
X612171Y540422D01*
X612156Y540398D01*
X612138Y540377D01*
X612117Y540358D01*
X612094Y540343D01*
X612069Y540331D01*
X612042Y540322D01*
X612015Y540317D01*
X611987Y540316D01*
X611959Y540319D01*
X611932Y540326D01*
X611906Y540336D01*
X611882Y540350D01*
X611860Y540367D01*
X611841Y540387D01*
X611824Y540410D01*
X611811Y540435D01*
X611802Y540461D01*
X611796Y540488D01*
X611794Y540516D01*
X601994Y544516D02*
X627994Y544516D01*
X627994Y488516D01*
X601994Y488516D01*
X601994Y544516D01*
D151*
X444379Y434102D02*
X444379Y422361D01*
X444378Y422361D02*
X444380Y422228D01*
X444386Y422096D01*
X444396Y421964D01*
X444409Y421832D01*
X444427Y421700D01*
X444448Y421570D01*
X444473Y421439D01*
X444502Y421310D01*
X444535Y421182D01*
X444571Y421054D01*
X444611Y420928D01*
X444655Y420803D01*
X444703Y420679D01*
X444754Y420557D01*
X444809Y420436D01*
X444867Y420317D01*
X444929Y420199D01*
X444994Y420084D01*
X445063Y419970D01*
X445134Y419859D01*
X445210Y419750D01*
X445288Y419643D01*
X445369Y419538D01*
X445454Y419436D01*
X445541Y419336D01*
X445631Y419239D01*
X445724Y419144D01*
X445820Y419053D01*
X445918Y418964D01*
X446019Y418878D01*
X446123Y418795D01*
X446229Y418715D01*
X446337Y418639D01*
X446447Y418565D01*
X446560Y418495D01*
X446674Y418428D01*
X446791Y418365D01*
X446909Y418305D01*
X447029Y418248D01*
X447151Y418195D01*
X447274Y418146D01*
X447398Y418100D01*
X447524Y418058D01*
X447651Y418020D01*
X447779Y417985D01*
X447908Y417954D01*
X448037Y417927D01*
X448168Y417904D01*
X448299Y417884D01*
X448431Y417869D01*
X448563Y417857D01*
X448695Y417849D01*
X448828Y417845D01*
X448960Y417845D01*
X449093Y417849D01*
X449225Y417857D01*
X449357Y417869D01*
X449489Y417884D01*
X449620Y417904D01*
X449751Y417927D01*
X449880Y417954D01*
X450009Y417985D01*
X450137Y418020D01*
X450264Y418058D01*
X450390Y418100D01*
X450514Y418146D01*
X450637Y418195D01*
X450759Y418248D01*
X450879Y418305D01*
X450997Y418365D01*
X451114Y418428D01*
X451228Y418495D01*
X451341Y418565D01*
X451451Y418639D01*
X451559Y418715D01*
X451665Y418795D01*
X451769Y418878D01*
X451870Y418964D01*
X451968Y419053D01*
X452064Y419144D01*
X452157Y419239D01*
X452247Y419336D01*
X452334Y419436D01*
X452419Y419538D01*
X452500Y419643D01*
X452578Y419750D01*
X452654Y419859D01*
X452725Y419970D01*
X452794Y420084D01*
X452859Y420199D01*
X452921Y420317D01*
X452979Y420436D01*
X453034Y420557D01*
X453085Y420679D01*
X453133Y420803D01*
X453177Y420928D01*
X453217Y421054D01*
X453253Y421182D01*
X453286Y421310D01*
X453315Y421439D01*
X453340Y421570D01*
X453361Y421700D01*
X453379Y421832D01*
X453392Y421964D01*
X453402Y422096D01*
X453408Y422228D01*
X453410Y422361D01*
X453410Y434102D01*
X464005Y434102D02*
X464005Y417846D01*
X464005Y425974D02*
X461747Y427328D01*
X461660Y427383D01*
X461576Y427440D01*
X461494Y427501D01*
X461414Y427564D01*
X461337Y427631D01*
X461262Y427700D01*
X461190Y427772D01*
X461121Y427847D01*
X461054Y427925D01*
X460991Y428005D01*
X460930Y428087D01*
X460873Y428171D01*
X460819Y428258D01*
X460768Y428346D01*
X460721Y428437D01*
X460677Y428529D01*
X460637Y428623D01*
X460600Y428718D01*
X460567Y428814D01*
X460538Y428912D01*
X460512Y429011D01*
X460490Y429110D01*
X460472Y429211D01*
X460457Y429312D01*
X460447Y429413D01*
X460440Y429515D01*
X460437Y429617D01*
X460438Y429719D01*
X460443Y429821D01*
X460452Y429923D01*
X460464Y430024D01*
X460481Y430125D01*
X460501Y430225D01*
X460525Y430324D01*
X460552Y430422D01*
X460584Y430519D01*
X460619Y430615D01*
X460657Y430709D01*
X460699Y430802D01*
X460745Y430894D01*
X460794Y430983D01*
X460846Y431071D01*
X460902Y431156D01*
X460961Y431240D01*
X461023Y431321D01*
X461088Y431399D01*
X461156Y431475D01*
X461226Y431549D01*
X461300Y431620D01*
X461376Y431688D01*
X461455Y431753D01*
X461536Y431815D01*
X461619Y431874D01*
X461704Y431929D01*
X461792Y431982D01*
X461881Y432031D01*
X461973Y432077D01*
X462065Y432119D01*
X462160Y432158D01*
X462256Y432193D01*
X462353Y432224D01*
X462451Y432252D01*
X462550Y432276D01*
X462650Y432296D01*
X462650Y432295D02*
X462820Y432324D01*
X462990Y432349D01*
X463161Y432370D01*
X463332Y432386D01*
X463503Y432399D01*
X463675Y432407D01*
X463847Y432411D01*
X464019Y432412D01*
X464191Y432407D01*
X464363Y432399D01*
X464534Y432387D01*
X464705Y432371D01*
X464876Y432350D01*
X465046Y432325D01*
X465216Y432297D01*
X465385Y432264D01*
X465553Y432227D01*
X465720Y432186D01*
X465886Y432141D01*
X466051Y432092D01*
X466214Y432040D01*
X466377Y431983D01*
X466538Y431922D01*
X466697Y431858D01*
X466855Y431790D01*
X467011Y431717D01*
X467166Y431642D01*
X467318Y431562D01*
X467469Y431479D01*
X467617Y431392D01*
X464005Y425974D02*
X466262Y424619D01*
X466262Y424620D02*
X466349Y424565D01*
X466433Y424508D01*
X466515Y424447D01*
X466595Y424384D01*
X466672Y424317D01*
X466747Y424248D01*
X466819Y424176D01*
X466888Y424101D01*
X466955Y424023D01*
X467018Y423943D01*
X467079Y423861D01*
X467136Y423777D01*
X467190Y423690D01*
X467241Y423602D01*
X467288Y423511D01*
X467332Y423419D01*
X467372Y423325D01*
X467409Y423230D01*
X467442Y423134D01*
X467471Y423036D01*
X467497Y422937D01*
X467519Y422838D01*
X467537Y422737D01*
X467552Y422636D01*
X467562Y422535D01*
X467569Y422433D01*
X467572Y422331D01*
X467571Y422229D01*
X467566Y422127D01*
X467557Y422025D01*
X467545Y421924D01*
X467528Y421823D01*
X467508Y421723D01*
X467484Y421624D01*
X467457Y421526D01*
X467425Y421429D01*
X467390Y421333D01*
X467352Y421239D01*
X467310Y421146D01*
X467264Y421054D01*
X467215Y420965D01*
X467163Y420877D01*
X467107Y420792D01*
X467048Y420708D01*
X466986Y420627D01*
X466921Y420549D01*
X466853Y420473D01*
X466783Y420399D01*
X466709Y420328D01*
X466633Y420260D01*
X466554Y420195D01*
X466473Y420133D01*
X466390Y420074D01*
X466305Y420019D01*
X466217Y419966D01*
X466128Y419917D01*
X466036Y419871D01*
X465944Y419829D01*
X465849Y419790D01*
X465753Y419755D01*
X465656Y419724D01*
X465558Y419696D01*
X465459Y419672D01*
X465359Y419652D01*
X465189Y419623D01*
X465019Y419598D01*
X464849Y419577D01*
X464677Y419561D01*
X464506Y419548D01*
X464334Y419540D01*
X464162Y419536D01*
X463990Y419535D01*
X463818Y419540D01*
X463646Y419548D01*
X463475Y419560D01*
X463304Y419576D01*
X463133Y419597D01*
X462963Y419622D01*
X462793Y419650D01*
X462624Y419683D01*
X462456Y419720D01*
X462289Y419761D01*
X462123Y419806D01*
X461958Y419855D01*
X461795Y419907D01*
X461632Y419964D01*
X461471Y420025D01*
X461312Y420089D01*
X461154Y420158D01*
X460998Y420230D01*
X460843Y420305D01*
X460691Y420385D01*
X460540Y420468D01*
X460392Y420555D01*
X474078Y430489D02*
X478594Y434102D01*
X478594Y417846D01*
X483109Y417846D02*
X474078Y417846D01*
D152*
X695027Y462893D02*
X702677Y462893D01*
X782677Y462893D02*
X790327Y462893D01*
X790327Y558193D01*
X695027Y558193D01*
X695027Y462893D01*
X702677Y462893D02*
X702677Y466893D01*
X782677Y466893D01*
X782677Y462893D01*
D150*
X737233Y560708D02*
X735624Y565534D01*
X738842Y565534D02*
X737233Y560708D01*
X741625Y560708D02*
X741625Y565534D01*
X742966Y565534D01*
X743037Y565532D01*
X743109Y565526D01*
X743179Y565517D01*
X743249Y565504D01*
X743319Y565487D01*
X743387Y565466D01*
X743454Y565442D01*
X743520Y565414D01*
X743584Y565383D01*
X743647Y565348D01*
X743707Y565310D01*
X743766Y565269D01*
X743822Y565225D01*
X743876Y565178D01*
X743927Y565129D01*
X743975Y565076D01*
X744021Y565021D01*
X744063Y564964D01*
X744103Y564904D01*
X744139Y564843D01*
X744172Y564779D01*
X744201Y564714D01*
X744227Y564648D01*
X744250Y564580D01*
X744269Y564511D01*
X744284Y564441D01*
X744295Y564371D01*
X744303Y564300D01*
X744307Y564229D01*
X744307Y564157D01*
X744303Y564086D01*
X744295Y564015D01*
X744284Y563945D01*
X744269Y563875D01*
X744250Y563806D01*
X744227Y563738D01*
X744201Y563672D01*
X744172Y563607D01*
X744139Y563543D01*
X744103Y563482D01*
X744063Y563422D01*
X744021Y563365D01*
X743975Y563310D01*
X743927Y563257D01*
X743876Y563208D01*
X743822Y563161D01*
X743766Y563117D01*
X743707Y563076D01*
X743647Y563038D01*
X743584Y563003D01*
X743520Y562972D01*
X743454Y562944D01*
X743387Y562920D01*
X743319Y562899D01*
X743249Y562882D01*
X743179Y562869D01*
X743109Y562860D01*
X743037Y562854D01*
X742966Y562852D01*
X741625Y562852D01*
X743234Y562852D02*
X744306Y560708D01*
X747048Y564461D02*
X748389Y565534D01*
X748389Y560708D01*
X749729Y560708D02*
X747048Y560708D01*
X850800Y596900D02*
X50800Y596900D01*
X850800Y596900D02*
X850800Y956900D01*
X50800Y956900D01*
X50800Y596900D01*
X90800Y896900D02*
X810800Y896900D01*
X810800Y656900D01*
X90800Y656900D01*
X90800Y896900D01*
X110800Y876900D02*
X790800Y876900D01*
X790800Y866900D01*
X110800Y866900D01*
X110800Y876900D01*
X110800Y676900D02*
X790800Y676900D01*
X790800Y686900D01*
X110800Y686900D01*
X110800Y676900D01*
X130800Y816900D02*
X130809Y817625D01*
X130835Y818349D01*
X130879Y819073D01*
X130940Y819795D01*
X131019Y820516D01*
X131115Y821235D01*
X131228Y821951D01*
X131359Y822664D01*
X131507Y823374D01*
X131672Y824079D01*
X131854Y824781D01*
X132053Y825478D01*
X132268Y826171D01*
X132501Y826857D01*
X132750Y827538D01*
X133015Y828213D01*
X133296Y828881D01*
X133594Y829542D01*
X133907Y830196D01*
X134236Y830842D01*
X134581Y831480D01*
X134941Y832109D01*
X135316Y832729D01*
X135706Y833340D01*
X136110Y833942D01*
X136529Y834534D01*
X136963Y835115D01*
X137410Y835686D01*
X137871Y836245D01*
X138345Y836794D01*
X138832Y837330D01*
X139332Y837855D01*
X139845Y838368D01*
X140370Y838868D01*
X140906Y839355D01*
X141455Y839829D01*
X142014Y840290D01*
X142585Y840737D01*
X143166Y841171D01*
X143758Y841590D01*
X144360Y841994D01*
X144971Y842384D01*
X145591Y842759D01*
X146220Y843119D01*
X146858Y843464D01*
X147504Y843793D01*
X148158Y844106D01*
X148819Y844404D01*
X149487Y844685D01*
X150162Y844950D01*
X150843Y845199D01*
X151529Y845432D01*
X152222Y845647D01*
X152919Y845846D01*
X153621Y846028D01*
X154326Y846193D01*
X155036Y846341D01*
X155749Y846472D01*
X156465Y846585D01*
X157184Y846681D01*
X157905Y846760D01*
X158627Y846821D01*
X159351Y846865D01*
X160075Y846891D01*
X160800Y846900D01*
X130800Y816900D02*
X130800Y736900D01*
X130809Y736175D01*
X130835Y735451D01*
X130879Y734727D01*
X130940Y734005D01*
X131019Y733284D01*
X131115Y732565D01*
X131228Y731849D01*
X131359Y731136D01*
X131507Y730426D01*
X131672Y729721D01*
X131854Y729019D01*
X132053Y728322D01*
X132268Y727629D01*
X132501Y726943D01*
X132750Y726262D01*
X133015Y725587D01*
X133296Y724919D01*
X133594Y724258D01*
X133907Y723604D01*
X134236Y722958D01*
X134581Y722320D01*
X134941Y721691D01*
X135316Y721071D01*
X135706Y720460D01*
X136110Y719858D01*
X136529Y719266D01*
X136963Y718685D01*
X137410Y718114D01*
X137871Y717555D01*
X138345Y717006D01*
X138832Y716470D01*
X139332Y715945D01*
X139845Y715432D01*
X140370Y714932D01*
X140906Y714445D01*
X141455Y713971D01*
X142014Y713510D01*
X142585Y713063D01*
X143166Y712629D01*
X143758Y712210D01*
X144360Y711806D01*
X144971Y711416D01*
X145591Y711041D01*
X146220Y710681D01*
X146858Y710336D01*
X147504Y710007D01*
X148158Y709694D01*
X148819Y709396D01*
X149487Y709115D01*
X150162Y708850D01*
X150843Y708601D01*
X151529Y708368D01*
X152222Y708153D01*
X152919Y707954D01*
X153621Y707772D01*
X154326Y707607D01*
X155036Y707459D01*
X155749Y707328D01*
X156465Y707215D01*
X157184Y707119D01*
X157905Y707040D01*
X158627Y706979D01*
X159351Y706935D01*
X160075Y706909D01*
X160800Y706900D01*
X740800Y706900D01*
X741525Y706909D01*
X742249Y706935D01*
X742973Y706979D01*
X743695Y707040D01*
X744416Y707119D01*
X745135Y707215D01*
X745851Y707328D01*
X746564Y707459D01*
X747274Y707607D01*
X747979Y707772D01*
X748681Y707954D01*
X749378Y708153D01*
X750071Y708368D01*
X750757Y708601D01*
X751438Y708850D01*
X752113Y709115D01*
X752781Y709396D01*
X753442Y709694D01*
X754096Y710007D01*
X754742Y710336D01*
X755380Y710681D01*
X756009Y711041D01*
X756629Y711416D01*
X757240Y711806D01*
X757842Y712210D01*
X758434Y712629D01*
X759015Y713063D01*
X759586Y713510D01*
X760145Y713971D01*
X760694Y714445D01*
X761230Y714932D01*
X761755Y715432D01*
X762268Y715945D01*
X762768Y716470D01*
X763255Y717006D01*
X763729Y717555D01*
X764190Y718114D01*
X764637Y718685D01*
X765071Y719266D01*
X765490Y719858D01*
X765894Y720460D01*
X766284Y721071D01*
X766659Y721691D01*
X767019Y722320D01*
X767364Y722958D01*
X767693Y723604D01*
X768006Y724258D01*
X768304Y724919D01*
X768585Y725587D01*
X768850Y726262D01*
X769099Y726943D01*
X769332Y727629D01*
X769547Y728322D01*
X769746Y729019D01*
X769928Y729721D01*
X770093Y730426D01*
X770241Y731136D01*
X770372Y731849D01*
X770485Y732565D01*
X770581Y733284D01*
X770660Y734005D01*
X770721Y734727D01*
X770765Y735451D01*
X770791Y736175D01*
X770800Y736900D01*
X770800Y816900D01*
X770791Y817625D01*
X770765Y818349D01*
X770721Y819073D01*
X770660Y819795D01*
X770581Y820516D01*
X770485Y821235D01*
X770372Y821951D01*
X770241Y822664D01*
X770093Y823374D01*
X769928Y824079D01*
X769746Y824781D01*
X769547Y825478D01*
X769332Y826171D01*
X769099Y826857D01*
X768850Y827538D01*
X768585Y828213D01*
X768304Y828881D01*
X768006Y829542D01*
X767693Y830196D01*
X767364Y830842D01*
X767019Y831480D01*
X766659Y832109D01*
X766284Y832729D01*
X765894Y833340D01*
X765490Y833942D01*
X765071Y834534D01*
X764637Y835115D01*
X764190Y835686D01*
X763729Y836245D01*
X763255Y836794D01*
X762768Y837330D01*
X762268Y837855D01*
X761755Y838368D01*
X761230Y838868D01*
X760694Y839355D01*
X760145Y839829D01*
X759586Y840290D01*
X759015Y840737D01*
X758434Y841171D01*
X757842Y841590D01*
X757240Y841994D01*
X756629Y842384D01*
X756009Y842759D01*
X755380Y843119D01*
X754742Y843464D01*
X754096Y843793D01*
X753442Y844106D01*
X752781Y844404D01*
X752113Y844685D01*
X751438Y844950D01*
X750757Y845199D01*
X750071Y845432D01*
X749378Y845647D01*
X748681Y845846D01*
X747979Y846028D01*
X747274Y846193D01*
X746564Y846341D01*
X745851Y846472D01*
X745135Y846585D01*
X744416Y846681D01*
X743695Y846760D01*
X742973Y846821D01*
X742249Y846865D01*
X741525Y846891D01*
X740800Y846900D01*
X160800Y846900D01*
M02*
