G04 EAGLE Gerber RS-274X export*
G75*
%MOMM*%
%FSLAX34Y34*%
%LPD*%
%INSoldermask Bottom*%
%IPPOS*%
%AMOC8*
5,1,8,0,0,1.08239X$1,22.5*%
G01*
%ADD10C,2.133600*%
%ADD11C,3.403200*%
%ADD12R,2.082800X2.082800*%
%ADD13C,2.082800*%
%ADD14C,1.511200*%
%ADD15C,3.003200*%
%ADD16C,0.959600*%


D10*
X115571Y345964D03*
X140971Y345964D03*
X166371Y345964D03*
X191771Y345964D03*
X217171Y345964D03*
X242571Y345964D03*
X267971Y345964D03*
X293371Y345964D03*
X318771Y345964D03*
X344171Y345964D03*
X369571Y345964D03*
X394971Y345964D03*
X420371Y345964D03*
X445771Y345964D03*
X471171Y345964D03*
X115571Y574564D03*
X140971Y574564D03*
X166371Y574564D03*
X191771Y574564D03*
X217171Y574564D03*
X242571Y574564D03*
X267971Y574564D03*
X293371Y574564D03*
X318771Y574564D03*
X344171Y574564D03*
X369571Y574564D03*
X394971Y574564D03*
X420371Y574564D03*
X445771Y574564D03*
X471171Y574564D03*
D11*
X77471Y358664D03*
X77471Y561864D03*
X509271Y561864D03*
X509271Y358664D03*
D12*
X717277Y510393D03*
D13*
X742677Y510393D03*
X768077Y510393D03*
D14*
X130800Y924960D02*
X130800Y938040D01*
X156200Y938040D02*
X156200Y924960D01*
X181600Y924960D02*
X181600Y938040D01*
X207000Y938040D02*
X207000Y924960D01*
X232400Y924960D02*
X232400Y938040D01*
X257800Y938040D02*
X257800Y924960D01*
X283200Y924960D02*
X283200Y938040D01*
X308600Y938040D02*
X308600Y924960D01*
X334000Y924960D02*
X334000Y938040D01*
X359400Y938040D02*
X359400Y924960D01*
X384800Y924960D02*
X384800Y938040D01*
X410200Y938040D02*
X410200Y924960D01*
X435600Y924960D02*
X435600Y938040D01*
X461000Y938040D02*
X461000Y924960D01*
X486400Y924960D02*
X486400Y938040D01*
X511800Y938040D02*
X511800Y924960D01*
D15*
X76200Y622300D03*
X76200Y931500D03*
X825400Y931500D03*
X825400Y622300D03*
D16*
X225552Y516636D03*
M02*
