M48
;GenerationSoftware,Autodesk,EAGLE,9.6.2*%
;CreationDate,2021-05-29T11:21:00Z*%
FMAT,2
ICI,OFF
METRIC,TZ,000.000
T5C0.350
T4C0.800
T3C1.016
T2C2.800
T1C3.200
%
G90
M71
T1
X7747Y35866
X7747Y56186
X50927Y56186
X50927Y35866
T2
X82540Y93150
X7620Y62230
X7620Y93150
X82540Y62230
T3
X71728Y51039
X74268Y51039
X76808Y51039
T4
X14097Y34596
X16637Y34596
X19177Y34596
X21717Y34596
X26797Y34596
X29337Y34596
X31877Y34596
X34417Y34596
X36957Y34596
X39497Y34596
X42037Y34596
X44577Y34596
X47117Y34596
X11557Y57456
X14097Y57456
X16637Y57456
X19177Y57456
X21717Y57456
X24257Y57456
X26797Y57456
X29337Y57456
X31877Y57456
X34417Y57456
X36957Y57456
X39497Y57456
X42037Y57456
X44577Y57456
X47117Y57456
X24257Y34596
X11557Y34596
X13080Y93150
X15620Y93150
X18160Y93150
X20700Y93150
X23240Y93150
X25780Y93150
X28320Y93150
X30860Y93150
X33400Y93150
X35940Y93150
X38480Y93150
X41020Y93150
X43560Y93150
X46100Y93150
X48640Y93150
X51180Y93150
T5
X22555Y51664
M30